<?xml version="1.0" standalone="no"?>
<!DOCTYPE svg PUBLIC "-//W3C//DTD SVG 1.1//EN" "http://www.w3.org/Graphics/SVG/1.1/DTD/svg11.dtd">

<!-- Title: NOR{sch}-->
<!-- Creator: Electric VLSI Design System version 9.07-->
<!-- Date: Fri Mar 22, 2024 15:56:17-->
<svg width="152" height="132" version="1.1" xmlns="http://www.w3.org/2000/svg">

<defs>
</defs>
<g id="Layer-Arc" fill="rgb(0,0,255)">
<circle cx="66.042" cy="57.5" r="0.25" />
<text x="66.042" y="68.5" fill="rgb(0,0,0)" font-size="23" style="text-anchor:middle">
  A
</text>
<circle cx="72.042" cy="70.5" r="0.25" />
<text x="68.042" y="81.5" fill="rgb(0,0,0)" font-size="23" style="text-anchor:middle">
  B
</text>
<text x="98.042" y="79.5" fill="rgb(0,0,0)" font-size="23" style="text-anchor:middle">
  AorB
</text>
<circle cx="84.042" cy="78.5" r="0.25" />
<text x="78.542" y="77" fill="rgb(0,0,0)" font-size="5" style="text-anchor:middle">
  2
</text>
<text x="78.542" y="79" fill="rgb(0,0,0)" font-size="11" style="text-anchor:middle">
  10
</text>
<text x="77.542" y="79.5" fill="rgb(0,0,0)" font-size="11" style="text-anchor:middle">
  NMOS
</text>
<text x="86.542" y="76" fill="rgb(0,0,0)" font-size="5" style="text-anchor:middle">
  2
</text>
<text x="86.542" y="80" fill="rgb(0,0,0)" font-size="11" style="text-anchor:middle">
  10
</text>
<text x="87.542" y="79.5" fill="rgb(0,0,0)" font-size="11" style="text-anchor:middle">
  NMOS
</text>
<circle cx="85.042" cy="72.5" r="0.25" />
<circle cx="85.042" cy="68.5" r="0.25" />
<text x="64.042" y="69.5" fill="rgb(0,0,0)" font-size="11" style="text-anchor:middle">
  .measure tran tf trig v(AorB) val=4.5 fall=1 td=4ns targ v(AorB) val=0.5 fall=1
</text>
<text x="57.042" y="68.5" fill="rgb(0,0,0)" font-size="11" style="text-anchor:middle">
  vb B 0 DC pwl 10n 0 20n 5 100n 5 110n 0
</text>
<text x="52.042" y="66.5" fill="rgb(0,0,0)" font-size="11" style="text-anchor:middle">
  vdd vdd 0 DC 5
</text>
<text x="65.042" y="67.5" fill="rgb(0,0,0)" font-size="11" style="text-anchor:middle">
  va A 0 DC pwl 10n 0 20n 5 50n 5 60n 0 90n 0 100n 5 140n 0 170n 0 180n 5
</text>
<text x="64.042" y="70.5" fill="rgb(0,0,0)" font-size="11" style="text-anchor:middle">
  .measure tran tr trig v(AorB) val=0.5 rise=1 td=4ns targ v(AorB) val=4.5 rise=1
</text>
<text x="50.042" y="71.5" fill="rgb(0,0,0)" font-size="11" style="text-anchor:middle">
  .tran 200n
</text>
<text x="55.042" y="72.5" fill="rgb(0,0,0)" font-size="11" style="text-anchor:middle">
  .include C:\electric\C5_models.txt
</text>
<text x="84.542" y="67" fill="rgb(0,0,0)" font-size="5" style="text-anchor:middle">
  2
</text>
<text x="84.542" y="69" fill="rgb(0,0,0)" font-size="11" style="text-anchor:middle">
  10
</text>
<text x="83.542" y="69.5" fill="rgb(0,0,0)" font-size="11" style="text-anchor:middle">
  PMOS
</text>
<text x="85.542" y="60" fill="rgb(0,0,0)" font-size="5" style="text-anchor:middle">
  2
</text>
<text x="85.542" y="62" fill="rgb(0,0,0)" font-size="11" style="text-anchor:middle">
  10
</text>
<text x="84.542" y="62.5" fill="rgb(0,0,0)" font-size="11" style="text-anchor:middle">
  PMOS
</text>
<line x1="79.042" y1="78.5" x2="84.042" y2="78.5" style="stroke:rgb(0,0,0)"/>
<line x1="79.042" y1="78.5" x2="79.042" y2="76.5" style="stroke:rgb(0,0,0)"/>
<line x1="85.042" y1="72.5" x2="79.042" y2="72.5" style="stroke:rgb(0,0,0)"/>
<line x1="85.042" y1="68.5" x2="85.042" y2="66.5" style="stroke:rgb(0,0,0)"/>
<line x1="85.042" y1="72.5" x2="85.042" y2="68.5" style="stroke:rgb(0,0,0)"/>
<line x1="98.042" y1="68.5" x2="85.042" y2="68.5" style="stroke:rgb(0,0,0)"/>
<line x1="72.042" y1="70.5" x2="76.042" y2="74.5" style="stroke:rgb(0,0,0)"/>
<line x1="82.042" y1="70.5" x2="72.042" y2="70.5" style="stroke:rgb(0,0,0)"/>
<line x1="82.042" y1="70.5" x2="82.042" y2="64.5" style="stroke:rgb(0,0,0)"/>
<line x1="86.042" y1="72.5" x2="85.042" y2="72.5" style="stroke:rgb(0,0,0)"/>
<line x1="86.042" y1="78.5" x2="84.042" y2="78.5" style="stroke:rgb(0,0,0)"/>
<line x1="86.042" y1="78.5" x2="86.042" y2="76.5" style="stroke:rgb(0,0,0)"/>
<line x1="93.042" y1="74.5" x2="89.042" y2="74.5" style="stroke:rgb(0,0,0)"/>
<line x1="93.042" y1="60.5" x2="93.042" y2="74.5" style="stroke:rgb(0,0,0)"/>
<line x1="85.042" y1="55.5" x2="86.042" y2="55.5" style="stroke:rgb(0,0,0)"/>
<line x1="85.042" y1="55.5" x2="85.042" y2="51.5" style="stroke:rgb(0,0,0)"/>
<line x1="86.042" y1="62.5" x2="86.042" y2="59.5" style="stroke:rgb(0,0,0)"/>
<line x1="86.042" y1="62.5" x2="85.042" y2="62.5" style="stroke:rgb(0,0,0)"/>
<line x1="79.042" y1="60.5" x2="93.042" y2="60.5" style="stroke:rgb(0,0,0)"/>
<line x1="79.042" y1="57.5" x2="79.042" y2="60.5" style="stroke:rgb(0,0,0)"/>
<line x1="66.042" y1="57.5" x2="79.042" y2="57.5" style="stroke:rgb(0,0,0)"/>
<line x1="83.042" y1="57.5" x2="66.042" y2="57.5" style="stroke:rgb(0,0,0)"/>
</g>
<g id="Layer-Bus" fill="url(#Bus)">
</g>
<g id="Layer-Node" fill="rgb(255,0,0)">
<line x1="63.042" y1="56.5" x2="66.042" y2="56.5" style="stroke:rgb(0,0,0)"/>
<line x1="66.042" y1="56.5" x2="66.042" y2="58.5" style="stroke:rgb(0,0,0)"/>
<line x1="66.042" y1="58.5" x2="63.042" y2="58.5" style="stroke:rgb(0,0,0)"/>
<line x1="63.042" y1="58.5" x2="62.042" y2="57.5" style="stroke:rgb(0,0,0)"/>
<line x1="62.042" y1="57.5" x2="63.042" y2="56.5" style="stroke:rgb(0,0,0)"/>
<line x1="71.042" y1="71.5" x2="68.042" y2="71.5" style="stroke:rgb(0,0,0)"/>
<line x1="68.042" y1="71.5" x2="68.042" y2="69.5" style="stroke:rgb(0,0,0)"/>
<line x1="68.042" y1="69.5" x2="71.042" y2="69.5" style="stroke:rgb(0,0,0)"/>
<line x1="71.042" y1="69.5" x2="72.042" y2="70.5" style="stroke:rgb(0,0,0)"/>
<line x1="72.042" y1="70.5" x2="71.042" y2="71.5" style="stroke:rgb(0,0,0)"/>
<line x1="101.042" y1="69.5" x2="98.042" y2="69.5" style="stroke:rgb(0,0,0)"/>
<line x1="98.042" y1="69.5" x2="98.042" y2="67.5" style="stroke:rgb(0,0,0)"/>
<line x1="98.042" y1="67.5" x2="101.042" y2="67.5" style="stroke:rgb(0,0,0)"/>
<line x1="101.042" y1="67.5" x2="102.042" y2="68.5" style="stroke:rgb(0,0,0)"/>
<line x1="102.042" y1="68.5" x2="101.042" y2="69.5" style="stroke:rgb(0,0,0)"/>
<line x1="84.042" y1="80.5" x2="84.042" y2="78.5" style="stroke:rgb(0,0,0)"/>
<line x1="82.542" y1="80.5" x2="85.542" y2="80.5" style="stroke:rgb(0,0,0)"/>
<line x1="82.917" y1="81" x2="85.167" y2="81" style="stroke:rgb(0,0,0)"/>
<line x1="83.292" y1="81.5" x2="84.792" y2="81.5" style="stroke:rgb(0,0,0)"/>
<line x1="83.667" y1="82" x2="84.417" y2="82" style="stroke:rgb(0,0,0)"/>
<line x1="84.042" y1="82.5" x2="84.042" y2="82.5" style="stroke:rgb(0,0,0)"/>
<line x1="79.042" y1="76.5" x2="79.042" y2="76" style="stroke:rgb(0,0,0)"/>
<line x1="79.042" y1="76" x2="78.042" y2="76" style="stroke:rgb(0,0,0)"/>
<line x1="78.042" y1="76" x2="78.042" y2="73" style="stroke:rgb(0,0,0)"/>
<line x1="78.042" y1="73" x2="79.042" y2="73" style="stroke:rgb(0,0,0)"/>
<line x1="79.042" y1="73" x2="79.042" y2="72.5" style="stroke:rgb(0,0,0)"/>
<line x1="77.542" y1="76" x2="77.542" y2="73" style="stroke:rgb(0,0,0)"/>
<line x1="77.542" y1="74.5" x2="76.042" y2="74.5" style="stroke:rgb(0,0,0)"/>
<line x1="86.042" y1="72.5" x2="86.042" y2="73" style="stroke:rgb(0,0,0)"/>
<line x1="86.042" y1="73" x2="87.042" y2="73" style="stroke:rgb(0,0,0)"/>
<line x1="87.042" y1="73" x2="87.042" y2="76" style="stroke:rgb(0,0,0)"/>
<line x1="87.042" y1="76" x2="86.042" y2="76" style="stroke:rgb(0,0,0)"/>
<line x1="86.042" y1="76" x2="86.042" y2="76.5" style="stroke:rgb(0,0,0)"/>
<line x1="87.542" y1="73" x2="87.542" y2="76" style="stroke:rgb(0,0,0)"/>
<line x1="87.542" y1="74.5" x2="89.042" y2="74.5" style="stroke:rgb(0,0,0)"/>
<line x1="85.042" y1="66.5" x2="85.042" y2="66" style="stroke:rgb(0,0,0)"/>
<line x1="85.042" y1="66" x2="84.042" y2="66" style="stroke:rgb(0,0,0)"/>
<line x1="84.042" y1="66" x2="84.042" y2="63" style="stroke:rgb(0,0,0)"/>
<line x1="84.042" y1="63" x2="85.042" y2="63" style="stroke:rgb(0,0,0)"/>
<line x1="85.042" y1="63" x2="85.042" y2="62.5" style="stroke:rgb(0,0,0)"/>
<line x1="83.542" y1="66" x2="83.542" y2="63" style="stroke:rgb(0,0,0)"/>
<circle cx="83.042" cy="64.5" r="0.5" style="stroke:rgb(0,0,0);fill:none"/>
<line x1="82.542" y1="64.5" x2="82.042" y2="64.5" style="stroke:rgb(0,0,0)"/>
<line x1="86.042" y1="59.5" x2="86.042" y2="59" style="stroke:rgb(0,0,0)"/>
<line x1="86.042" y1="59" x2="85.042" y2="59" style="stroke:rgb(0,0,0)"/>
<line x1="85.042" y1="59" x2="85.042" y2="56" style="stroke:rgb(0,0,0)"/>
<line x1="85.042" y1="56" x2="86.042" y2="56" style="stroke:rgb(0,0,0)"/>
<line x1="86.042" y1="56" x2="86.042" y2="55.5" style="stroke:rgb(0,0,0)"/>
<line x1="84.542" y1="59" x2="84.542" y2="56" style="stroke:rgb(0,0,0)"/>
<circle cx="84.042" cy="57.5" r="0.5" style="stroke:rgb(0,0,0);fill:none"/>
<line x1="83.542" y1="57.5" x2="83.042" y2="57.5" style="stroke:rgb(0,0,0)"/>
<circle cx="85.042" cy="51.5" r="1.5" style="stroke:rgb(0,0,0);fill:none"/>
<circle cx="85.042" cy="51.5" r="1.125" style="stroke:rgb(0,0,0);fill:none"/>
</g>
<g id="Layer-Text" fill="rgb(0,0,0)">
</g>

</svg>
